<?xml version="1.0" encoding="utf-8"?>
<!-- Generator: Adobe Illustrator 26.1.0, SVG Export Plug-In . SVG Version: 6.00 Build 0)  -->
<svg version="1.1" id="Layer_1" xmlns="http://www.w3.org/2000/svg" xmlns:xlink="http://www.w3.org/1999/xlink" x="0px" y="0px"
	 viewBox="0 0 800 604" style="enable-background:new 0 0 800 604;" xml:space="preserve">
<style type="text/css">
	.st0{fill:#EFF1F3;}
	.st1{fill-rule:evenodd;clip-rule:evenodd;fill:#687787;}
</style>
<rect y="-98" class="st0" width="800" height="800"/>
<path class="st1" d="M221.7,158.5c0.1-9.6,7.8-17.3,17.4-17.4h315.3c9.6,0,17.4,7.8,17.4,17.4v280.2c-0.1,9.6-7.8,17.3-17.4,17.4
	H239c-9.6,0-17.4-7.8-17.4-17.4V158.5z M536.7,176.2h-280v245l162.6-162.6c6.8-6.8,17.9-6.8,24.7,0l92.6,92.8V176.2z M291.7,246.2
	c0,19.3,15.7,35,35,35s35-15.7,35-35c0-19.3-15.7-35-35-35S291.7,226.8,291.7,246.2z"/>
</svg>
